Note: This torrent contains both a DVD ISO and an MP4 Video of the concert so I suggest you select whichever you prefer.

Proms 2011, Number 20
Grainger's arrangements of folk music
Recorded on 2 August
Broadcast on BBC4 on 14 August
Thanks to GringoLoco & The BBC :)

Northumbrian smallpiper Kathryn Tickell and friends celebrate the music of Percy Grainger in a Prom at the Royal Albert Hall. Molly on the Shore, Shepherd's Hey, Early One Morning - Grainger was a pioneering collector of folk music from around the world and the concert includes traditional and contemporary folk music using material which formed the basis of Grainger's arrangements. Special guests include English folk singer June Tabor and also on stage are the Northern Sinfonia conducted by John Harle. Introduced by Charles Hazlewood.

Grainger:
Green Bushes (9 mins)
Molly on the Shore (5 mins)
Shepherd's Hey - medley (12 mins)
Early One Morning (5 mins)
Shallow Brown (8 mins)
Scotch Strathspey and Reel (9 mins)

Interspersed with traditional and contemporary folk music
Including material which formed the basis for Grainger's arrangements

June Tabor: folk singer
Wilson Family
BBC Singers (men's voices)
Kathryn Tickell Band
Northern Sinfonia
John Harle: conductor

*******************************************************

Format: DVD ISO PAL 16:9
Runtime: 1:07

Video
ID : 224 (0xE0)
Format : MPEG Video
Format version : Version 2
Format profile : Main@Main
Format settings, BVOP : Yes
Format settings, Matrix : Default
Bit rate mode : Variable
Bit rate : 3 715 Kbps
Nominal bit rate : 9 544 Kbps
Width : 720 pixels
Height : 576 pixels
Display aspect ratio : 16:9
Frame rate : 25.000 fps
Standard : PAL
Color space : YUV
Chroma subsampling : 4:2:0
Bit depth : 8 bits
Scan type : Interlaced
Scan order : Top Field First
Compression mode : Lossy
Bits/(Pixel*Frame) : 0.358


Audio
ID : 192 (0xC0)
Format : MPEG Audio
Format version : Version 1
Format profile : Layer 2
Bit rate mode : Constant
Bit rate : 256 Kbps
Channel(s) : 2 channels
Sampling rate : 48.0 KHz
Compression mode : Lossy

***************************************************

Format: MP4 468p
Runtime: 1:08

Video
ID : 1
Format : AVC
Format/Info : Advanced Video Codec
Format profile : Main@L3.0
Format settings, CABAC : Yes
Format settings, ReFrames : 4 frames
Codec ID : avc1
Codec ID/Info : Advanced Video Coding
Duration : 1h 8mn
Bit rate mode : Constant
Bit rate : 1 404 Kbps
Width : 832 pixels
Height : 468 pixels
Display aspect ratio : 16:9
Frame rate mode : Constant
Frame rate : 25.000 fps
Standard : PAL
Color space : YUV
Chroma subsampling : 4:2:0
Bit depth : 8 bits
Scan type : Progressive
Bits/(Pixel*Frame) : 0.144
Stream size : 682 MiB (93%)

Audio
ID : 2
Format : AAC
Format/Info : Advanced Audio Codec
Format profile : HE-AAC / LC
Codec ID : 40
Duration : 1h 8mn
Bit rate mode : Variable
Bit rate : 96.0 Kbps
Channel(s) : 2 channels
Channel positions : Front: L R
Sampling rate : 48.0 KHz / 24.0 KHz
Compression mode : Lossy
Stream size : 46.1 MiB (6%)